<svg id="visual" viewBox="0 0 900 600" width="900" height="600" xmlns="http://www.w3.org/2000/svg" xmlns:xlink="http://www.w3.org/1999/xlink" version="1.1"><rect x="0" y="0" width="900" height="600" fill="#fff"></rect><defs><linearGradient id="grad1_0" x1="33.3%" y1="0%" x2="100%" y2="100%"><stop offset="20%" stop-color="#ffffff" stop-opacity="1"></stop><stop offset="80%" stop-color="#ffffff" stop-opacity="1"></stop></linearGradient></defs><defs><linearGradient id="grad2_0" x1="0%" y1="0%" x2="66.7%" y2="100%"><stop offset="20%" stop-color="#ffffff" stop-opacity="1"></stop><stop offset="80%" stop-color="#ffffff" stop-opacity="1"></stop></linearGradient></defs><g transform="translate(900, 0)"><path d="M0 270.4C-37.6 269.4 -75.3 268.3 -103.5 249.8C-131.7 231.4 -150.4 195.5 -166.2 166.2C-181.9 136.9 -194.7 114.2 -211.6 87.6C-228.4 61 -249.4 30.5 -270.4 0L0 0Z" fill="#7aa356"></path></g><g transform="translate(0, 600)"><path d="M0 -270.4C35.5 -267.3 71.1 -264.2 103.5 -249.8C135.9 -235.5 165.3 -209.9 180.3 -180.3C195.4 -150.7 196.2 -117.2 208.8 -86.5C221.4 -55.8 245.9 -27.9 270.4 0L0 0Z" fill="#7aa356"></path></g></svg>