<svg id="visual" viewBox="0 0 900 600" width="900" height="600" xmlns="http://www.w3.org/2000/svg" xmlns:xlink="http://www.w3.org/1999/xlink" version="1.1"><rect x="0" y="0" width="900" height="600" fill="#fff"></rect><defs><linearGradient id="grad1_0" x1="33.3%" y1="100%" x2="100%" y2="0%"><stop offset="20%" stop-color="#ffffff" stop-opacity="1"></stop><stop offset="80%" stop-color="#ffffff" stop-opacity="1"></stop></linearGradient></defs><defs><linearGradient id="grad2_0" x1="0%" y1="100%" x2="66.7%" y2="0%"><stop offset="20%" stop-color="#ffffff" stop-opacity="1"></stop><stop offset="80%" stop-color="#ffffff" stop-opacity="1"></stop></linearGradient></defs><g transform="translate(900, 600)"><path d="M-324.5 0C-310.6 -30.2 -296.7 -60.4 -289.1 -93.9C-281.6 -127.5 -280.4 -164.3 -262.5 -190.7C-244.7 -217.2 -210.1 -233.3 -179.3 -246.8C-148.4 -260.2 -121.3 -270.9 -92.1 -283.4C-62.8 -295.9 -31.4 -310.2 0 -324.5L0 0Z" fill="#7aa356"></path></g><g transform="translate(0, 0)"><path d="M324.5 0C314.2 32.3 303.8 64.6 292.9 95.2C282 125.8 270.5 154.6 254.8 185.2C239.2 215.7 219.3 247.9 190.7 262.5C162.1 277.1 124.7 274.1 91.5 281.5C58.2 288.9 29.1 306.7 0 324.5L0 0Z" fill="#7aa356"></path></g></svg>